<svg xmlns="http://www.w3.org/2000/svg" viewBox="0 0 128 128">
  <defs>
    <linearGradient id="g" x1="0" y1="0" x2="1" y2="1">
      <stop offset="0" stop-color="#0f172a"/>
      <stop offset="1" stop-color="#111827"/>
    </linearGradient>
    <filter id="shadow" x="-20%" y="-20%" width="140%" height="140%">
      <feDropShadow dx="0" dy="6" stdDeviation="6" flood-color="#000" flood-opacity="0.35"/>
    </filter>
  </defs>

  <!-- rounded background -->
  <rect x="6" y="6" width="116" height="116" rx="28" fill="url(#g)"/>

  <!-- house -->
  <path d="M64 30 30 56v42c0 4 3 7 7 7h54c4 0 7-3 7-7V56L64 30z" fill="#ffffff" opacity="0.95" filter="url(#shadow)"/>
  <path d="M26 58 64 28l38 30" fill="none" stroke="#ffffff" stroke-width="10" stroke-linecap="round" stroke-linejoin="round" opacity="0.9"/>

  <!-- coin -->
  <circle cx="64" cy="76" r="16" fill="#0ea5e9"/>
  <path d="M64 64v24" stroke="#0f172a" stroke-width="6" stroke-linecap="round"/>
  <path d="M56 70c0-4 4-6 8-6s8 2 8 6-4 6-8 6-8 2-8 6 4 6 8 6 8-2 8-6" fill="none" stroke="#0f172a" stroke-width="5" stroke-linecap="round"/>
</svg>
